<svg width="17" height="17" viewBox="0 0 17 17" fill="none" xmlns="http://www.w3.org/2000/svg">
<path d="M17 8.5C17 13.1887 13.1887 17 8.5 17C3.81129 17 0 13.1887 0 8.5C0 3.81129 3.81129 0 8.5 0C13.1887 0 17 3.81129 17 8.5Z" fill="#CFF09E"/>
<path d="M8.5 0C13.1887 0 17 3.81129 17 8.5C17 13.1887 13.1887 17 8.5 17" fill="#CFF09E"/>
<path d="M2.49515 2.49514C5.81289 -0.822599 11.1871 -0.822599 14.5048 2.49514C17.8226 5.81288 17.8226 11.1871 14.5048 14.5048" fill="#CFF09E"/>
<path d="M8.3629 11.4339C8.25322 11.4339 8.17096 11.4065 8.0887 11.3242L5.59354 8.82906C5.42902 8.66454 5.42902 8.41777 5.59354 8.25325C5.75806 8.08873 6.00483 8.08873 6.16935 8.25325L8.39032 10.4742L12.6129 6.22422C12.7774 6.0597 13.0242 6.0597 13.1887 6.22422C13.3532 6.38873 13.3532 6.63551 13.1887 6.80002L8.63709 11.3242C8.55483 11.4065 8.44515 11.4339 8.3629 11.4339Z" fill="#323232"/>
</svg>
