<svg width="40" height="42" viewBox="0 0 40 42" fill="none" xmlns="http://www.w3.org/2000/svg">
<g clip-path="url(#clip0_31_103)">
<path d="M17.8366 40C27.558 40 35.4387 31.4934 35.4387 21C35.4387 10.5066 27.558 2 17.8366 2C8.11514 2 0.234375 10.5066 0.234375 21C0.234375 31.4934 8.11514 40 17.8366 40Z" fill="#CFF09E"/>
<path d="M17.8366 2C17.3096 2 16.8824 2.46112 16.8824 3.02993C16.8824 3.59875 17.3096 4.05979 17.8366 4.05979C21.8208 4.05979 25.4622 5.67153 28.2328 8.32158L25.9787 10.7545C23.7131 8.65 20.8569 7.50198 17.8366 7.50198C14.7316 7.50198 11.8878 8.73023 9.69898 10.7596L6.76946 7.59758C6.7643 7.59201 6.75859 7.58726 6.7533 7.58184C6.74842 7.57628 6.74422 7.57041 6.7392 7.56492C6.36674 7.16273 5.76242 7.16273 5.38989 7.56492C2.06528 11.1536 0.234375 15.9249 0.234375 21C0.234375 31.4766 8.13067 40 17.8366 40C22.5383 40 26.9586 38.0237 30.2832 34.435C33.6078 30.8463 35.4387 26.075 35.4387 21C35.4387 10.5234 27.5424 2 17.8366 2ZM25.3342 12.9171C25.7065 13.3195 26.3106 13.3198 26.6835 12.9179C26.7111 12.888 26.7362 12.8564 26.7598 12.8241C26.7618 12.8219 26.764 12.8201 26.7659 12.818L29.5822 9.7782C31.8398 12.5283 33.283 16.0734 33.5006 19.9701H32.4389C31.912 19.9701 31.4848 20.4312 31.4848 21C31.4848 21.5688 31.912 22.0299 32.4389 22.0299H33.5009C33.2914 25.8258 31.926 29.3836 29.5876 32.2277L27.3234 29.7837C29.2036 27.4212 30.3414 24.3514 30.3414 20.9999C30.3414 20.4311 29.9141 19.97 29.3872 19.97C28.8603 19.97 28.4331 20.4311 28.4331 20.9999C28.4331 27.3069 23.6794 32.4381 17.8363 32.4381C11.9932 32.4381 7.23963 27.307 7.23963 20.9999C7.23963 14.6928 11.9932 9.5617 17.8363 9.5617C20.6694 9.56193 23.3322 10.7534 25.3342 12.9171ZM17.8366 35.6329C17.3096 35.6329 16.8824 36.094 16.8824 36.6628V37.908C13.2724 37.6731 9.98804 36.1153 7.44034 33.6785L9.69898 31.2405C11.8878 33.2699 14.7316 34.4981 17.8366 34.4981C20.9415 34.4981 23.7853 33.2698 25.9741 31.2405L28.2383 33.6844C25.6035 36.2085 22.3073 37.6824 18.7906 37.9084V36.6628C18.7907 36.0939 18.3634 35.6329 17.8366 35.6329ZM2.17254 22.0299H5.36775C5.57478 24.9786 6.66385 27.6655 8.3496 29.7838L6.09088 32.2218C3.83333 29.4718 2.39016 25.9266 2.17254 22.0299ZM6.08545 9.77234L8.3496 12.2163C6.66385 14.3346 5.57485 17.0214 5.36775 19.9701H2.17213C2.38163 16.1742 3.74704 12.6163 6.08545 9.77234Z" fill="#507C5C"/>
<path d="M21.7081 20.1805V17.3562C22.3542 17.5124 22.6997 17.9076 22.735 18.5314C22.7421 18.6557 22.8295 18.753 22.9342 18.753H23.9792C24.0305 18.753 24.0793 18.7299 24.1165 18.6879C24.1592 18.6396 24.1821 18.5716 24.179 18.5012C24.1113 16.8939 23.2113 15.8326 21.708 15.5837V14.6421C21.708 14.5111 21.6184 14.4045 21.5082 14.4045H20.4633C20.3531 14.4045 20.2634 14.5111 20.2634 14.6421V15.5837C18.6896 15.844 17.7882 16.9782 17.7882 18.7016C17.7882 20.425 18.6896 21.5592 20.2634 21.8195V24.6438C19.6173 24.4876 19.2718 24.0925 19.2365 23.4686C19.2295 23.3443 19.142 23.247 19.0373 23.247H17.9924C17.941 23.247 17.8922 23.2701 17.855 23.3121C17.8123 23.3604 17.7894 23.4284 17.7925 23.4989C17.8602 25.1062 18.7602 26.1674 20.2635 26.4164V27.3582C20.2635 27.4892 20.3531 27.5957 20.4634 27.5957H21.5082C21.6183 27.5957 21.7081 27.4892 21.7081 27.3582V26.4165C23.2819 26.1562 24.1833 25.022 24.1833 23.2986C24.1833 21.5751 23.2819 20.4408 21.7081 20.1805ZM22.7388 23.2985C22.7388 23.6008 22.7389 24.3946 21.7081 24.6438V21.9531C22.7389 22.2023 22.7388 22.9963 22.7388 23.2985ZM19.2328 18.7015C19.2328 18.3992 19.2328 17.6054 20.2635 17.3562V20.0468C19.2328 19.7977 19.2328 19.0037 19.2328 18.7015Z" fill="#507C5C"/>
<path d="M16.2601 21.0402C16.8757 20.4501 17.2276 19.609 17.2276 18.7232C17.2276 17.0157 15.9405 15.6266 14.3587 15.6266L11.6368 15.6269C11.5557 15.6269 11.4899 15.6978 11.4899 15.7855V26.1954C11.4899 26.2937 11.5637 26.3735 11.6548 26.3735H12.7697C12.8608 26.3735 12.9346 26.2937 12.9346 26.1954V21.8202H14.3594L14.372 21.82C15.15 21.8278 15.7827 22.5174 15.7827 23.3571V26.1955C15.7827 26.2938 15.8566 26.3735 15.9477 26.3735H17.0625C17.1536 26.3735 17.2275 26.2938 17.2275 26.1955V23.3571C17.2276 22.4713 16.8757 21.6302 16.2601 21.0402ZM15.6425 19.4071C15.4237 19.9332 14.927 20.2603 14.3929 20.2603H12.9347V17.1864H14.3593L14.3729 17.1862C15.3549 17.1965 16.1056 18.2939 15.6425 19.4071Z" fill="#507C5C"/>
</g>
<defs>
<clipPath id="clip0_31_103">
<rect width="38.9101" height="42" fill="white" transform="translate(0.234375)"/>
</clipPath>
</defs>
</svg>
