<svg width="47" height="51" viewBox="0 0 47 51" fill="none" xmlns="http://www.w3.org/2000/svg">
<g clip-path="url(#clip0_34_246)">
<g clip-path="url(#clip1_34_246)">
<path d="M24.4626 0H24.3969C16.4528 0 9.98999 6.46064 9.98999 14.4017C9.98999 19.6071 12.3606 26.4769 17.0359 34.8207C20.5022 41.0065 24.0171 45.7442 24.0523 45.7913C24.1501 45.9227 24.3044 46.0001 24.4678 46.0001C24.4724 46.0001 24.4771 46.0001 24.4818 45.9999C24.6504 45.9953 24.806 45.909 24.8995 45.7685C24.9342 45.716 28.424 40.4459 31.8667 34.0001C36.5136 25.3 38.8697 18.706 38.8697 14.4017C38.8694 6.46054 32.4065 0 24.4626 0ZM31.1126 14.7537C31.1126 18.4387 28.1147 21.4366 24.4296 21.4366C20.7447 21.4366 17.7467 18.4386 17.7467 14.7537C17.7467 11.0687 20.7447 8.07079 24.4296 8.07079C28.1147 8.07079 31.1126 11.0687 31.1126 14.7537Z" fill="#FF0000"/>
</g>
</g>
<defs>
<clipPath id="clip0_34_246">
<rect width="45.7819" height="51" fill="white" transform="translate(0.42981)"/>
</clipPath>
<clipPath id="clip1_34_246">
<rect width="46" height="46" fill="white" transform="translate(1.42981)"/>
</clipPath>
</defs>
</svg>
