<svg width="250" height="250" viewBox="0 0 250 250" fill="none" xmlns="http://www.w3.org/2000/svg">
<path d="M125 250C194.036 250 250 194.036 250 125C250 55.9644 194.036 0 125 0C55.9644 0 0 55.9644 0 125C0 194.036 55.9644 250 125 250Z" fill="#323232"/>
<path d="M91.15 187L37 168.148L74.15 89L105 94.5857L91.15 187Z" fill="#DADADA"/>
<path d="M91 187L148 167.275L137.238 85L104.802 90.8137L91 187Z" fill="#DADADA"/>
<path d="M216 186L147.78 167.242L137 89L171.135 94.5288L216 186Z" fill="#DADADA"/>
<path d="M161.706 102.877L138.442 98.6111L145.982 154.018L189.484 165.675L161.706 102.877Z" fill="#323232"/>
<path d="M79.3155 99.8512L52.0337 159.573L92.8571 172.222L103.274 104.167L79.3155 99.8512Z" fill="#323232"/>
<path d="M138.442 98.6111L103.274 104.167L92.8571 172.222L145.982 154.018L138.442 98.6111Z" fill="#323232"/>
<path d="M164.583 69.3948C164.583 91.7163 124.157 140.476 124.157 140.476C124.157 140.476 83.7302 91.7163 83.7302 69.3948C83.7302 47.0734 101.835 28.9683 124.157 28.9683C146.478 28.9683 164.583 47.0238 164.583 69.3948Z" fill="#FF0000"/>
<path d="M124.107 86.5575C135.421 86.5575 144.593 77.3856 144.593 66.0714C144.593 54.7573 135.421 45.5853 124.107 45.5853C112.793 45.5853 103.621 54.7573 103.621 66.0714C103.621 77.3856 112.793 86.5575 124.107 86.5575Z" fill="#323232"/>
</svg>
