<svg width="40" height="42" viewBox="0 0 40 42" fill="none" xmlns="http://www.w3.org/2000/svg">
<g clip-path="url(#clip0_31_72)">
<path fill-rule="evenodd" clip-rule="evenodd" d="M0.234375 0H39.1445V42H0.234375V0Z" fill="#3A3A3A"/>
<path fill-rule="evenodd" clip-rule="evenodd" d="M34.6316 26.8109C34.6316 26.6262 34.7644 26.4824 34.955 26.4824C35.1262 26.4824 35.2594 26.6262 35.2594 26.8109C35.2594 26.9957 35.1262 27.16 34.955 27.16C34.9124 27.1604 34.8702 27.1516 34.8308 27.1342C34.7914 27.1168 34.7556 27.0911 34.7255 27.0586C34.6954 27.0261 34.6716 26.9875 34.6555 26.945C34.6394 26.9024 34.6313 26.8569 34.6316 26.8109ZM34.955 27.0776C35.0688 27.0776 35.1833 26.9547 35.1833 26.8107C35.1833 26.6667 35.069 26.5643 34.955 26.5643C34.8218 26.5643 34.7077 26.6669 34.7077 26.8107C34.7077 26.9545 34.8218 27.0776 34.955 27.0776ZM34.8979 26.9752H34.8407V26.6671H34.955C34.974 26.6671 35.0121 26.6671 35.0311 26.6876C35.0501 26.7085 35.069 26.7288 35.069 26.7493C35.069 26.7905 35.0501 26.8314 35.0123 26.8314L35.069 26.9752H34.9929L34.955 26.8519H34.8979V26.9752ZM34.8979 26.7905H34.974C34.9929 26.7905 34.9929 26.7695 34.9929 26.7493C34.9929 26.7493 34.9929 26.7288 34.974 26.7288H34.8979V26.7905Z" fill="#E9B040"/>
<path fill-rule="evenodd" clip-rule="evenodd" d="M34.6316 23.4025C34.6316 23.2177 34.7644 23.0739 34.955 23.0739C35.1262 23.0739 35.2594 23.2177 35.2594 23.4025C35.2594 23.5873 35.1262 23.7516 34.955 23.7516C34.9124 23.752 34.8702 23.7432 34.8308 23.7258C34.7914 23.7084 34.7556 23.6827 34.7255 23.6502C34.6954 23.6177 34.6716 23.5791 34.6555 23.5366C34.6393 23.494 34.6312 23.4484 34.6316 23.4025ZM34.955 23.6694C35.0688 23.6694 35.1833 23.5461 35.1833 23.4025C35.1833 23.2587 35.069 23.1561 34.955 23.1561C34.8218 23.1561 34.7077 23.2587 34.7077 23.4025C34.7077 23.5459 34.8218 23.6694 34.955 23.6694ZM34.8979 23.5668H34.8407V23.2587H34.955C34.974 23.2587 35.0121 23.2587 35.0311 23.2792C35.0501 23.3001 35.069 23.3203 35.069 23.3408C35.069 23.382 35.0501 23.423 35.0123 23.423L35.069 23.5668H34.9929L34.955 23.4435H34.8979V23.5668ZM34.8979 23.3822H34.974C34.9929 23.3822 34.9929 23.3613 34.9929 23.341C34.9929 23.341 34.9929 23.3206 34.974 23.3206H34.8979V23.3822Z" fill="#323232"/>
<path fill-rule="evenodd" clip-rule="evenodd" d="M16.4272 23.998C16.1038 24.1006 15.8755 24.1418 15.6282 24.1418C15.1336 24.1418 14.8292 23.8132 14.8292 23.197C14.8292 23.0741 14.8482 22.9506 14.8672 22.8072L14.9241 22.3965L14.9812 22.047L15.4378 19.0904H16.4459L16.3319 19.7473H16.9597L16.8075 20.8357H16.1799L15.8944 22.6015C15.8944 22.6632 15.8755 22.7244 15.8755 22.7658C15.8755 22.9917 15.9895 23.0944 16.237 23.0944C16.3702 23.0944 16.4463 23.0739 16.5604 23.0532L16.4272 23.998ZM19.68 23.9566C19.3295 24.0781 18.9637 24.1406 18.5956 24.1418C17.4732 24.1418 16.8075 23.4846 16.8075 22.2115C16.8075 20.7333 17.5875 19.6244 18.6527 19.6244C19.5088 19.6244 20.0603 20.2404 20.0603 21.2055C20.0603 21.5136 20.0223 21.8217 19.9274 22.2731H17.8347V22.3965C17.8347 22.9096 18.1391 23.156 18.7478 23.156C19.1283 23.156 19.4706 23.0739 19.8511 22.8891L19.68 23.9566ZM19.0522 21.39V21.185C19.0522 20.8359 18.862 20.6307 18.5576 20.6307C18.2152 20.6307 17.9869 20.8976 17.8919 21.3902H19.0522V21.39ZM8.38054 24.0596H7.33429L7.9431 19.9735L6.59244 24.0596H5.86978L5.79368 19.994L5.14671 24.0596H4.13861L4.95656 18.7413H6.45921L6.51654 22.0267L7.52464 18.7413H9.19868L8.38054 24.0596ZM10.9107 22.1293C10.7966 22.1293 10.7774 22.1088 10.7013 22.1088C10.1117 22.1088 9.8073 22.3553 9.8073 22.766C9.8073 23.0532 9.9593 23.2179 10.1876 23.2179C10.7013 23.2179 10.8915 22.7658 10.9107 22.1293ZM11.7476 24.0596H10.8346L10.8535 23.6077C10.6252 23.9568 10.3208 24.1418 9.75017 24.1418C9.23663 24.1418 8.81817 23.6489 8.81817 22.9506C8.81817 22.7455 8.85612 22.5608 8.89407 22.3965C9.06525 21.7186 9.69304 21.3079 10.6442 21.2874C10.7583 21.2874 10.9486 21.2874 11.1006 21.3079C11.1386 21.1645 11.1386 21.1028 11.1386 21.0207C11.1386 20.7333 10.9294 20.6511 10.4349 20.6511C10.1305 20.6511 9.80729 20.7128 9.55981 20.7743L9.42679 20.8359H9.35068L9.50289 19.8709C9.99745 19.7066 10.3398 19.6449 10.7203 19.6449C11.6333 19.6449 12.1089 20.0761 12.1089 20.9181C12.1089 21.1231 12.1279 21.2874 12.0518 21.7598L11.8427 23.2998L11.8047 23.5668L11.7668 23.7923V23.9361L11.7476 24.0596ZM24.74 19.7887C25.0251 19.7887 25.2915 19.8707 25.672 20.0761L25.8432 18.9056C25.7481 18.8647 25.7289 18.8647 25.5959 18.803L25.1583 18.7004C25.0251 18.6594 24.8729 18.6389 24.6829 18.6389C24.1692 18.6389 23.8648 18.6389 23.5416 18.8647C23.3704 18.9673 23.1611 19.1316 22.914 19.4192L22.7997 19.378L21.7155 20.1995L21.7727 19.7478H20.6501L20.0225 24.0599H21.069L21.4495 21.7397C21.4495 21.7397 21.6017 21.4112 21.6778 21.3083C21.8677 21.0414 22.0389 21.0414 22.2482 21.0414H22.3243C22.3054 21.2878 22.2862 21.5754 22.2862 21.8628C22.2862 23.2796 23.0282 24.1627 24.1696 24.1627C24.455 24.1627 24.7023 24.1215 25.0826 23.9984L25.2725 22.7867C24.9304 22.9719 24.6449 23.0536 24.3787 23.0536C23.7699 23.0536 23.4083 22.5817 23.4083 21.7602C23.4083 20.61 23.9409 19.7887 24.74 19.7887ZM33.6232 18.7413L33.3948 20.2609C33.1476 19.8502 32.8434 19.6654 32.4439 19.6654C31.8924 19.6654 31.3787 19.994 31.0553 20.6304L30.3893 20.1992L30.4465 19.7476H29.3239L28.6773 24.0596H29.7426L30.0847 21.7395C30.0847 21.7395 30.3512 21.4109 30.4273 21.3081C30.5795 21.1031 30.7507 21.0412 30.8839 21.0412C30.7576 21.4519 30.6933 21.8818 30.6935 22.3145C30.6935 23.4027 31.2262 24.1211 31.9871 24.1211C32.3676 24.1211 32.672 23.9777 32.9574 23.6286L32.9003 24.0599H33.9084L34.7076 18.7415H33.6232V18.7413ZM32.349 23.0327C31.9875 23.0327 31.8163 22.7658 31.8163 22.191C31.8163 21.3493 32.1397 20.7333 32.634 20.7333C32.9956 20.7333 33.1859 21.0412 33.1859 21.5957C33.1859 22.4374 32.8434 23.0327 32.349 23.0327ZM27.4981 22.1293C27.3842 22.1293 27.3652 22.1088 27.2891 22.1088C26.6993 22.1088 26.3949 22.3553 26.3949 22.766C26.3949 23.0532 26.5471 23.2179 26.7754 23.2179C27.2889 23.2179 27.4791 22.7658 27.4981 22.1293ZM28.335 24.0596H27.4224L27.4413 23.6077C27.213 23.9568 26.9086 24.1418 26.3378 24.1418C25.8244 24.1418 25.3678 23.6694 25.3678 22.9506C25.3868 21.9241 26.0905 21.2874 27.2318 21.2874C27.3461 21.2874 27.5362 21.2874 27.6884 21.3079C27.7266 21.1645 27.7266 21.1028 27.7266 21.0207C27.7266 20.7333 27.5172 20.6511 27.0225 20.6511C26.7181 20.6511 26.3759 20.7128 26.1476 20.7743L25.9954 20.8359H25.9383L26.0905 19.8709C26.5852 19.7066 26.9274 19.6449 27.3079 19.6449C28.2209 19.6449 28.6965 20.0761 28.6965 20.9181C28.6965 21.1231 28.7155 21.2874 28.6394 21.7598L28.4305 23.2998L28.3923 23.5668L28.3544 23.7923L28.335 23.9361V24.0596ZM13.9352 20.6716C14.1445 20.6716 14.4297 20.6921 14.7341 20.7333L14.8863 19.7271C14.5819 19.6861 14.1827 19.6449 13.9354 19.6449C12.7749 19.6449 12.3756 20.3226 12.3756 21.1233C12.3756 21.6365 12.6037 22.0267 13.1554 22.2936C13.5928 22.5196 13.6689 22.561 13.6689 22.7455C13.6689 23.0124 13.4406 23.1767 13.0221 23.1767C12.7179 23.1767 12.4325 23.1151 12.0899 23.0124L11.9759 23.998H11.9951L12.1852 24.0392C12.2422 24.0596 12.3374 24.0801 12.4515 24.0801C12.7177 24.1211 12.9269 24.1211 13.0601 24.1211C14.2206 24.1211 14.7152 23.6491 14.7152 22.6839C14.7152 22.0886 14.4489 21.7395 13.9162 21.4931C13.4788 21.2671 13.4216 21.2466 13.4216 21.0412C13.4216 20.8359 13.6118 20.6716 13.9352 20.6716Z" fill="#1B3771"/>
<path fill-rule="evenodd" clip-rule="evenodd" d="M0.234375 33.2289H35.7112V9H0.234375V33.2289Z" fill="#1B3771"/>
<path fill-rule="evenodd" clip-rule="evenodd" d="M18.2948 28.7409C20.0065 30.425 22.3084 31.4512 24.8006 31.4512C30.1648 31.4512 34.5018 26.7696 34.5018 20.9791C34.5018 15.2096 30.165 10.5074 24.8006 10.5074C22.3084 10.5074 20.0067 11.5342 18.2948 13.2178C16.3353 15.1477 15.0989 17.8992 15.0989 20.9791C15.0989 24.0597 16.3353 26.8315 18.2948 28.7409Z" fill="#E9B040"/>
<path fill-rule="evenodd" clip-rule="evenodd" d="M21.4333 19.8707C21.3947 19.4981 21.3376 19.128 21.2621 18.7621H15.3271C15.4045 18.3874 15.4998 18.0173 15.6126 17.6532H20.9768C20.8602 17.2769 20.7269 16.9068 20.5774 16.5444H16.0119C16.1874 16.1662 16.3778 15.7962 16.5825 15.4355H20.0065C19.7939 15.0404 19.5455 14.669 19.2649 14.3269H17.3244C17.6098 13.9366 17.9521 13.5671 18.2945 13.2182C16.5825 11.5344 14.2997 10.5079 11.7887 10.5079C6.42442 10.5079 2.08722 15.21 2.08722 20.9795C2.08722 26.7698 6.42442 31.4517 11.7887 31.4517C14.2997 31.4517 16.5823 30.4252 18.2945 28.7413C18.6367 28.3922 18.9794 28.0229 19.2836 27.6327H17.3242C17.0557 27.2802 16.8079 26.9099 16.5823 26.524H20.0065C20.2191 26.1682 20.4098 25.7978 20.5774 25.415H16.0119C15.8559 25.0555 15.7224 24.6851 15.6124 24.3063H20.9766C21.0892 23.9421 21.1845 23.572 21.2621 23.1973C21.3382 22.8279 21.3949 22.4579 21.4333 22.0886C21.5094 21.3516 21.5094 20.6077 21.4333 19.8707Z" fill="#CC2131"/>
<path fill-rule="evenodd" clip-rule="evenodd" d="M24.7053 18.5772L24.5337 19.7271C24.1532 19.5218 23.8871 19.4397 23.6017 19.4397C22.8029 19.4397 22.2514 20.2611 22.2514 21.4314C22.2514 22.2324 22.6319 22.7248 23.2402 22.7248C23.5066 22.7248 23.792 22.6431 24.1344 22.4579L23.9445 23.6696C23.5639 23.7722 23.3169 23.8134 23.0125 23.8134C21.8899 23.8134 21.1862 22.9508 21.1862 21.534C21.1862 19.6244 22.1562 18.3105 23.5448 18.3105C23.7351 18.3105 23.8873 18.331 24.0206 18.3515L24.4578 18.4746C24.591 18.5361 24.61 18.5361 24.7053 18.5772ZM21.3384 19.378C21.3003 19.3575 21.2623 19.3575 21.2242 19.3575C20.882 19.3575 20.6914 19.5423 20.3683 20.0556L20.4633 19.3985H19.4934L18.8654 23.731H19.9119C20.2924 21.0824 20.3872 20.6304 20.901 20.6304H20.9771C21.0722 20.1171 21.1864 19.7271 21.3766 19.3778H21.3384V19.378ZM15.27 23.6694C14.9846 23.772 14.7565 23.8132 14.509 23.8132C13.9763 23.8132 13.6721 23.4846 13.6721 22.8684C13.6721 22.7455 13.6911 22.622 13.7101 22.4786L13.767 22.0472L13.8241 21.7186L14.2807 18.762H15.327L15.2129 19.3985H15.7456L15.5934 20.4662H15.0609L14.7755 22.2526C14.7755 22.3348 14.7565 22.3965 14.7565 22.4374C14.7565 22.6634 14.8706 22.766 15.118 22.766C15.2513 22.766 15.3274 22.7455 15.4035 22.7248L15.27 23.6694ZM11.2183 20.7743C11.2183 21.3079 11.4656 21.6981 12.0172 21.965C12.4547 22.191 12.5118 22.2526 12.5118 22.4579C12.5118 22.7248 12.3216 22.8481 11.903 22.8481C11.5986 22.8481 11.3133 22.7865 10.9708 22.6634L10.8186 23.6694H10.8757L11.0661 23.7106C11.1524 23.7388 11.2422 23.7526 11.3323 23.7515C11.5796 23.772 11.7889 23.7925 11.922 23.7925C13.0253 23.7925 13.5389 23.341 13.5389 22.3553C13.5389 21.76 13.3297 21.4109 12.797 21.1436C12.3594 20.9385 12.3025 20.8769 12.3025 20.6921C12.3025 20.4457 12.4737 20.3226 12.816 20.3226C13.0253 20.3226 13.3106 20.3635 13.5768 20.4047L13.729 19.3985C13.4628 19.3575 13.0441 19.3163 12.797 19.3163C11.6178 19.3163 11.2183 19.9735 11.2183 20.7743ZM32.7519 23.731H31.7438L31.8005 23.2998C31.5151 23.6284 31.2107 23.7718 30.8302 23.7718C30.0695 23.7718 29.556 23.0739 29.556 21.9857C29.556 20.5483 30.3358 19.3368 31.2678 19.3368C31.6865 19.3368 31.9909 19.5216 32.2759 19.9323L32.5042 18.4127H33.5506L32.7519 23.731ZM31.1917 22.7041C31.6865 22.7041 32.0286 22.1088 32.0286 21.2466C32.0286 20.7126 31.8387 20.4047 31.4771 20.4047C31.0017 20.4047 30.659 21 30.659 21.8624C30.659 22.4169 30.8302 22.7041 31.1917 22.7041ZM18.4847 23.6284C18.1234 23.7513 17.781 23.8132 17.4005 23.8132C16.221 23.8132 15.6124 23.1353 15.6124 21.8829C15.6124 20.3842 16.3924 19.2959 17.4576 19.2959C18.3137 19.2959 18.8652 19.9118 18.8652 20.8769C18.8652 21.185 18.8273 21.4931 18.7514 21.9445H16.6589C16.6397 22.0062 16.6397 22.0267 16.6397 22.0679C16.6397 22.5607 16.9441 22.8274 17.5719 22.8274C17.9334 22.8274 18.2758 22.7453 18.6563 22.5605L18.4847 23.6284ZM17.8953 21.0614V20.8357C17.8953 20.4866 17.7239 20.2814 17.4007 20.2814C17.0775 20.2814 16.83 20.5688 16.735 21.0614H17.8953ZM7.22363 23.731H6.17738L6.78599 19.6449L5.43533 23.731H4.71267L4.63657 19.6654L3.9898 23.731H3.01965L3.8376 18.4127H5.34026L5.39738 21.6981L6.40568 18.4127H8.04157L7.22363 23.731ZM9.82966 21.8007C9.71541 21.7803 9.65849 21.7803 9.58238 21.7803C8.99275 21.7803 8.68834 22.0062 8.68834 22.4374C8.68834 22.7043 8.84034 22.8893 9.06865 22.8893C9.50628 22.8893 9.81069 22.4374 9.82966 21.8007ZM10.5905 23.731H9.71541L9.73459 23.2791C9.46833 23.6286 9.12577 23.7923 8.63121 23.7923C8.06055 23.7923 7.68004 23.3203 7.68004 22.622C7.68004 21.575 8.34598 20.9588 9.52526 20.9588C9.63931 20.9588 9.79151 20.9588 9.94372 20.9793C9.98167 20.8562 9.98167 20.7947 9.98167 20.7126C9.98167 20.4252 9.81049 20.3223 9.31593 20.3223C9.01152 20.3223 8.66916 20.3633 8.44086 20.4455L8.28865 20.4864L8.19357 20.5069L8.34578 19.5419C8.87829 19.3776 9.22065 19.3159 9.60116 19.3159C10.5142 19.3159 10.9898 19.7471 10.9898 20.5686C10.9898 20.7945 10.9706 20.9586 10.8945 21.431L10.6854 22.971L10.6474 23.238L10.6282 23.4635L10.6093 23.6073L10.5905 23.731ZM26.4173 21.8007C26.3034 21.7803 26.2461 21.7803 26.17 21.7803C25.5801 21.7803 25.2757 22.0062 25.2757 22.4374C25.2757 22.7043 25.4279 22.8893 25.6562 22.8893C26.0747 22.8893 26.3983 22.4374 26.4173 21.8007ZM27.1781 23.731H26.3032L26.3222 23.2791C26.0557 23.6286 25.6946 23.7923 25.2186 23.7923C24.6481 23.7923 24.2487 23.3203 24.2487 22.622C24.2487 21.575 24.9336 20.9588 26.1126 20.9588C26.2265 20.9588 26.3791 20.9588 26.5309 20.9793C26.5691 20.8562 26.5691 20.7947 26.5691 20.7126C26.5691 20.4252 26.3979 20.3223 25.9031 20.3223C25.5987 20.3223 25.2566 20.3633 25.0282 20.4455L24.876 20.4864L24.781 20.5069L24.9332 19.5419C25.4655 19.3776 25.808 19.3159 26.1885 19.3159C27.1016 19.3159 27.5772 19.7471 27.5772 20.5686C27.5772 20.7945 27.5582 20.9586 27.4821 21.431L27.2727 22.971L27.2348 23.238L27.1966 23.4635L27.1777 23.6073V23.731H27.1781ZM29.9936 19.378C29.9743 19.3575 29.9365 19.3575 29.8982 19.3575C29.556 19.3575 29.3467 19.5423 29.0233 20.0556L29.1184 19.3985H28.1674L27.5204 23.731H28.5857C28.9472 21.0824 29.0614 20.6304 29.556 20.6304H29.6321C29.7272 20.1171 29.8604 19.7271 30.0316 19.3778H29.9936V19.378Z" fill="white"/>
</g>
<defs>
<clipPath id="clip0_31_72">
<rect width="38.9101" height="42" fill="white" transform="translate(0.234375)"/>
</clipPath>
</defs>
</svg>
