<svg width="18" height="18" viewBox="0 0 18 18" fill="none" xmlns="http://www.w3.org/2000/svg">
<path d="M5.36047 0.886622C3.83128 1.76942 2.73733 3.19509 2.28036 4.90066C1.82329 6.60623 2.05794 8.3878 2.94074 9.91698C4.11824 11.9563 6.31379 13.2232 8.67083 13.2232C9.41505 13.2232 10.1535 13.0951 10.8535 12.8493L13.8273 18L15.9476 16.7758L12.9744 11.626C13.9787 10.7667 14.7018 9.62699 15.0513 8.32257C15.5083 6.617 15.2736 4.83553 14.3908 3.30625C13.2134 1.26691 11.0178 0 8.66084 0C7.50636 0 6.3651 0.306542 5.36047 0.886622ZM12.2705 4.53046C12.8264 5.49327 12.9741 6.61504 12.6863 7.68892C12.3986 8.7628 11.7098 9.66039 10.747 10.2163C10.1141 10.5817 9.39615 10.7748 8.67083 10.7748C7.18581 10.7748 5.80265 9.97702 5.06117 8.69277C4.50528 7.72996 4.3576 6.60828 4.64543 5.53431C4.93317 4.46043 5.62196 3.56284 6.58478 3.00686C7.21755 2.64155 7.93552 2.44842 8.66084 2.44842C10.146 2.44842 11.529 3.24621 12.2705 4.53046Z" fill="#505050"/>
</svg>
