<svg width="40" height="42" viewBox="0 0 40 42" fill="none" xmlns="http://www.w3.org/2000/svg">
<g clip-path="url(#clip0_31_87)">
<path fill-rule="evenodd" clip-rule="evenodd" d="M2.53208 8C1.26943 8 0.234375 9.18059 0.234375 10.6207V30.3793C0.234375 31.8194 1.26943 33 2.53208 33H33.141C34.4037 33 35.4387 31.8195 35.4387 30.3793V10.6207C35.4387 9.18052 34.4036 8 33.141 8H2.53208Z" fill="#FFFFFE"/>
<path fill-rule="evenodd" clip-rule="evenodd" d="M21.2702 23.6142L22.7557 23.6153L23.0756 22.7396C23.5485 22.7396 24.0223 22.7437 24.495 22.7403C24.9797 22.7368 24.8685 22.5529 25.0877 23.6142L26.4127 23.6111L25.2506 17.7977C24.2534 17.7977 23.6632 17.6187 23.3768 18.3016C23.1346 18.8792 22.9038 19.4833 22.6705 20.0691C22.5543 20.361 21.3118 23.3898 21.2702 23.6142V23.6142ZM24.9084 21.8069L24.3456 19.4251L23.3575 21.8131L24.9084 21.8069V21.8069Z" fill="#265697"/>
<path fill-rule="evenodd" clip-rule="evenodd" d="M17.4393 22.1039L17.2595 23.406C18.2043 23.6842 19.0652 23.8633 20.0485 23.4968C21.3879 22.9976 21.9389 21.3794 20.6065 20.4045C20.2666 20.1558 19.8521 20.0123 19.5342 19.7618C18.9477 19.2996 19.7038 18.6938 20.7494 18.9646L21.3751 19.1505L21.5556 17.925C20.6013 17.6532 19.735 17.5349 18.8363 18.029C17.8941 18.547 17.5921 19.621 18.033 20.3112C18.2487 20.6488 18.5353 20.8806 18.9254 21.1035C19.2574 21.2931 19.8153 21.4781 19.8428 21.8722C19.8797 22.4018 19.2291 22.5012 18.7752 22.4786C18.1245 22.4463 17.9553 22.2654 17.4393 22.1039L17.4393 22.1039Z" fill="#265697"/>
<path fill-rule="evenodd" clip-rule="evenodd" d="M12.1021 20.8083C11.9636 20.5985 11.8543 20.2948 11.7258 20.089C11.5786 19.853 11.4399 19.6799 11.2864 19.4917C11.1334 19.3042 10.4597 18.6735 10.1573 18.5707L11.4495 23.6065L12.9623 23.6008L15.2144 17.7963L13.6967 17.7991C13.4177 18.7285 12.6563 20.7122 12.2864 21.7218L12.1021 20.8083V20.8083Z" fill="#265697"/>
<path fill-rule="evenodd" clip-rule="evenodd" d="M14.9101 23.6093L16.3447 23.6086L17.2416 17.792L15.8064 17.7991L14.9101 23.6093Z" fill="#265697"/>
<path fill-rule="evenodd" clip-rule="evenodd" d="M12.1021 20.8083C12.0722 20.4102 11.6646 18.2193 11.5293 18.0288C11.2797 17.6777 10.6228 17.7931 10.1987 17.7931L8.66162 17.8371C8.70899 18.0107 11.4823 19.8694 12.1021 20.8083V20.8083Z" fill="#265697"/>
<path d="M25.2716 17.7778H24.2607V17.903H25.2716V17.7778Z" fill="#265697"/>
<path d="M31.6725 24.7278H3.40179V27.8932H31.6725V24.7278Z" fill="#D97B16"/>
<path d="M31.8217 13.4998H3.2525V16.6652H31.8217V13.4998Z" fill="#265697"/>
</g>
<defs>
<clipPath id="clip0_31_87">
<rect width="38.9101" height="42" fill="white" transform="translate(0.234375)"/>
</clipPath>
</defs>
</svg>
